<svg width="301" height="281" viewBox="0 0 301 281" fill="none" xmlns="http://www.w3.org/2000/svg">
<g opacity="0.25">
<path opacity="0.25" d="M283.844 173.347C282.862 157.609 274.719 150.747 265.058 148.257C273.697 131.755 288.874 88.7961 240.876 49.3014C202.374 17.6205 181.613 54.9881 181.613 54.9881C181.613 54.9881 187.163 24.3909 155.449 22.3153C123.735 20.2398 115.038 42.5567 97.3696 50.7304C79.701 58.9042 74.1143 43.0747 43.0084 61.494C11.9024 79.9133 51.0935 119.368 38.8174 126.634C26.5414 133.9 12.7303 150.508 12.2175 169.192C11.7046 187.876 32.1684 185.801 35.2383 216.423C35.8025 222.059 37.1836 226.07 39.0922 228.892C39.9091 211.023 90.2626 196.608 152.273 196.608C214.793 196.608 265.476 211.258 265.476 229.332C265.476 229.387 265.469 229.446 265.469 229.501C278.074 216.783 285.324 197.064 283.844 173.347Z" fill="#C9EBF9"/>
<path opacity="0.25" d="M277.254 144.71C280.2 144.71 282.588 141.931 282.588 138.502C282.588 135.073 280.2 132.294 277.254 132.294C274.308 132.294 271.92 135.073 271.92 138.502C271.92 141.931 274.308 144.71 277.254 144.71Z" fill="#C9EBF9"/>
<path opacity="0.25" d="M91.8505 47.496C98.3299 44.5322 101.545 37.651 99.0322 32.1264C96.5192 26.6017 89.2293 24.5257 82.7499 27.4895C76.2705 30.4532 73.0551 37.3344 75.5682 42.8591C78.0812 48.3837 85.3711 50.4598 91.8505 47.496Z" fill="#C9EBF9"/>
<path opacity="0.25" d="M152.269 196.607C90.259 196.607 39.9018 211.022 39.0885 228.89C39.0812 229.037 39.0702 229.184 39.0702 229.331C39.0702 247.405 89.7534 262.055 152.273 262.055C214.599 262.055 265.15 247.497 265.469 229.5C265.469 229.445 265.476 229.386 265.476 229.331C265.472 211.257 214.789 196.607 152.269 196.607Z" fill="#FBDDEA"/>
</g>
<path d="M105.158 165.775L102.762 165.374C102.762 165.374 101.934 146.893 99.9926 141.298C99.9926 141.298 73.444 140.662 69.5241 121.031C69.5241 121.031 90.0428 114.756 100.07 138.355C100.07 138.355 99.1391 120.487 94.8089 103.32C94.8089 103.32 74.7994 106.516 72.1691 89.0006C72.1691 89.0006 84.3682 83.4462 93.4095 94.4412C93.4095 94.4412 90.7645 80.7167 87.6323 73.6561C87.6323 73.6561 72.5171 75.7721 68.2493 60.7214C68.2493 60.7214 79.3347 59.41 86.1926 67.5102L81.0235 52.9408C81.0235 52.9408 68.916 43.1177 72.5281 28.7503C72.5281 28.7503 86.2476 35.0468 82.7234 51.3244L87.6873 67.1245C87.6873 67.1245 90.1381 52.353 100.788 52.4412C100.788 52.4412 100.854 70.585 89.7644 73.1638C89.7644 73.1638 94.7357 87.7002 96.0581 98.2507C96.0581 98.2507 95.7651 79.0159 111.778 76.415C111.778 76.415 116.247 91.4987 97.5748 101.458C97.5748 101.458 100.876 117.401 102.066 137.418C102.066 137.418 98.6775 118.297 117.35 108.342C117.35 108.342 127.303 124.972 103.348 142.062C103.352 142.069 105.407 153.167 105.158 165.775Z" fill="#FAC5CA"/>
<path opacity="0.36" d="M171.162 177.798L168.714 176.362C168.714 176.362 175.499 155.83 175.704 148.909C175.704 148.909 146.972 137.11 150.859 114.032C150.859 114.032 175.88 115.763 177.012 145.732C177.012 145.732 183.427 125.832 185.845 105.271C185.845 105.271 162.663 100.392 167.077 80.162C167.077 80.162 182.709 79.1995 188.01 94.9886C188.01 94.9886 190.83 78.8946 190.347 69.8723C190.347 69.8723 172.96 65.8608 174.558 47.6398C174.558 47.6398 187.211 50.8432 191.329 62.5582L191.743 44.4879C191.743 44.4879 182.606 28.6989 192.53 14.5189C192.53 14.5189 204.894 27.1302 194.274 43.4373L193.124 62.7676C193.124 62.7676 201.945 47.6619 213.536 52.2134C213.536 52.2134 206.059 72.0544 192.875 70.2323C192.875 70.2323 192.255 88.1851 189.314 100.264C189.314 100.264 196.996 79.1334 215.566 82.9943C215.566 82.9943 214.17 101.336 189.64 104.4C189.64 104.4 186.614 123.191 179.584 145.552C179.584 145.552 183.837 123.253 208.367 120.189C208.367 120.189 212.32 142.514 179.049 151.158C179.049 151.154 176.675 164.133 171.162 177.798Z" fill="#FAC5CA"/>
<path opacity="0.36" d="M228.802 214.707L227.703 213.682C227.703 213.682 233.571 203.877 234.476 200.328C234.476 200.328 221.017 190.906 225.684 179.451C225.684 179.451 238.392 183.246 235.517 198.841C235.517 198.841 241.122 189.319 244.741 178.992C244.741 178.992 233.344 173.787 237.956 163.861C237.956 163.861 246.133 165.18 247.045 173.941C247.045 173.941 250.357 165.966 251.148 161.256C251.148 161.256 242.642 157.171 245.569 147.954C245.569 147.954 251.727 151.073 252.5 157.597L254.801 148.322C254.801 148.322 251.91 139.116 258.666 132.951C258.666 132.951 263.589 140.894 256.23 148.072L253.405 157.91C253.405 157.91 259.699 151.139 265.154 154.835C265.154 154.835 259.006 164.202 252.416 161.734C252.416 161.734 250.024 170.921 247.111 176.814C247.111 176.814 253.511 166.803 262.648 170.951C262.648 170.951 259.812 180.252 246.804 178.985C246.804 178.985 243.074 188.327 236.868 199.046C236.868 199.046 241.635 188.037 254.647 189.304C254.647 189.304 254.108 201.28 235.949 201.879C235.945 201.875 233.223 208.296 228.802 214.707Z" fill="#FAC5CA"/>
<path d="M198.886 194.774L201.077 194.587C201.077 194.587 203.183 178.353 205.349 173.555C205.349 173.555 229.373 174.808 234.352 157.774C234.352 157.774 216.28 150.842 205.491 170.958C205.491 170.958 207.645 155.276 212.811 140.442C212.811 140.442 230.648 144.626 234.308 129.366C234.308 129.366 223.699 123.639 214.723 132.713C214.723 132.713 218.119 120.799 221.467 114.789C221.467 114.789 234.963 117.688 239.924 104.713C239.924 104.713 230.011 102.799 223.222 109.473L228.959 96.987C228.959 96.987 240.616 89.1586 238.407 76.2496C238.407 76.2496 225.556 80.86 227.541 95.4514L221.896 109.036C221.896 109.036 220.768 95.8518 211.144 95.2016C211.144 95.2016 209.752 111.189 219.581 114.216C219.581 114.216 214.027 126.688 212.056 135.897C212.056 135.897 213.734 118.966 199.461 115.583C199.461 115.583 194.318 128.572 210.448 138.62C210.448 138.62 206.297 152.443 203.751 170.007C203.751 170.007 208.217 153.387 192.083 143.336C192.083 143.336 181.873 157.314 202.253 174.007C202.26 174.007 199.59 183.647 198.886 194.774Z" fill="#FAC5CA"/>
<path opacity="0.36" d="M68.3738 231.657L70.3117 230.147C70.3117 230.147 62.472 213.667 61.6002 207.856C61.6002 207.856 84.8554 194.429 79.2248 175.451C79.2248 175.451 58.1126 179.944 60.1678 205.339C60.1678 205.339 52.7054 189.344 48.5804 172.31C48.5804 172.31 67.8133 165.389 62.0178 148.873C62.0178 148.873 48.6207 149.956 45.701 163.909C45.701 163.909 41.6786 150.687 41.184 143.024C41.184 143.024 55.5739 137.536 52.3794 122.371C52.3794 122.371 41.9387 126.603 39.6124 136.978L37.44 121.798C37.44 121.798 43.6238 107.383 33.7546 96.6343C33.7546 96.6343 24.5082 108.764 35.1833 121.218L38.1067 137.371C38.1067 137.371 29.0801 125.707 19.6762 130.949C19.6762 130.949 28.036 146.764 39.0666 143.63C39.0666 143.63 41.4001 158.685 45.1222 168.508C45.1222 168.508 36.4582 151.631 21.0499 157.134C21.0499 157.134 24.0832 172.424 45.2614 172.031C45.2614 172.031 49.7307 187.5 57.9587 205.493C57.9587 205.493 52.0936 187.217 30.9155 187.607C30.9155 187.607 29.8018 206.9 58.9772 210.152C58.9808 210.155 62.3072 220.805 68.3738 231.657Z" fill="#FAC5CA"/>
<path d="M107.473 129.296C107.473 132.892 105.015 135.809 103.11 135.809C101.205 135.809 98.0364 133.3 98.0364 129.704C98.0364 126.107 101.205 122.783 103.11 122.783C105.015 122.783 107.473 125.7 107.473 129.296Z" fill="#C9EBF9"/>
<path d="M100.781 204.716C103.349 203.91 104.561 200.473 103.49 197.04C102.418 193.608 99.4671 191.478 96.8992 192.285C94.3312 193.091 93.1184 196.527 94.1903 199.96C95.2621 203.393 98.2128 205.522 100.781 204.716Z" fill="#C9EBF9"/>
<path d="M181.782 64.2223C181.756 64.2223 181.734 64.2186 181.709 64.2186C180.419 64.2186 179.32 65.0709 178.943 66.2391C178.866 66.4742 178.822 66.724 178.807 66.9775C178.803 67.0289 178.8 67.084 178.8 67.1354V70.2874V77.3553V84.4306V87.5164C178.8 89.1218 180.111 90.4369 181.712 90.4369C183.313 90.4369 184.625 89.1218 184.625 87.5164V67.1354C184.621 65.5558 183.35 64.259 181.782 64.2223Z" fill="#1D439C"/>
<path d="M210.43 71.3564H91.6987V232.748H210.43V71.3564Z" fill="#6A9ECE"/>
<path d="M210.43 232.748H91.6987L210.43 71.3564V232.748Z" fill="#BDDBF3"/>
<path d="M179.104 216.018H101.857H90.4751C90.4751 222.227 95.5416 227.307 101.733 227.307H101.854H190.358C184.17 227.307 179.104 222.23 179.104 216.018Z" fill="#BDDBF3"/>
<path d="M101.857 78.057V216.018H179.104C179.104 222.226 184.17 227.307 190.361 227.307C196.553 227.307 201.619 222.226 201.619 216.018V171.237V141.389V133.848V129.737V112.467V78.0606H101.857V78.057ZM185.401 200.181C185.401 200.916 184.808 201.515 184.071 201.515H147.034C146.302 201.515 145.705 200.92 145.705 200.181C145.705 199.447 146.298 198.848 147.034 198.848H184.071C184.804 198.848 185.401 199.443 185.401 200.181ZM197.674 82.7738V82.6159C197.674 82.6416 197.681 82.6673 197.681 82.693C197.681 82.7224 197.674 82.7481 197.674 82.7738Z" fill="white"/>
<path d="M147.034 198.848C146.302 198.848 145.705 199.443 145.705 200.181C145.705 200.916 146.298 201.515 147.034 201.515H184.071C184.804 201.515 185.401 200.92 185.401 200.181C185.401 199.447 184.808 198.848 184.071 198.848H147.034Z" fill="#BDDBF3"/>
<path d="M123.318 121.155C122.336 121.155 121.537 121.839 121.537 122.687C121.537 123.536 122.332 124.219 123.318 124.219H151.775H174.832C175.814 124.219 176.613 123.532 176.613 122.687C176.613 121.842 175.818 121.155 174.832 121.155H151.775H123.318Z" fill="#83AEDC"/>
<path d="M123.318 192.647C122.336 192.647 121.537 193.334 121.537 194.179C121.537 195.024 122.332 195.711 123.318 195.711H151.775H174.832C175.814 195.711 176.613 195.024 176.613 194.179C176.613 193.334 175.818 192.647 174.832 192.647H151.775H123.318Z" fill="#83AEDC"/>
<path d="M122.288 138.631H151.028H174.605C175.272 138.631 175.858 138.329 176.195 137.881C176.448 137.617 176.605 137.282 176.605 136.911C176.605 136.066 175.811 135.379 174.825 135.379H174.803C174.737 135.372 174.671 135.361 174.602 135.361H151.024H122.284C121.24 135.361 120.387 136.096 120.387 136.996C120.39 137.896 121.244 138.631 122.288 138.631Z" fill="#83AEDC"/>
<path d="M122.288 144.439H151.028H174.605C175.649 144.439 176.503 143.704 176.503 142.804C176.503 141.904 175.649 141.169 174.605 141.169H151.028H122.288C121.244 141.169 120.39 141.904 120.39 142.804C120.39 143.704 121.244 144.439 122.288 144.439Z" fill="#83AEDC"/>
<path d="M122.288 151.881H151.028H174.605C175.173 151.881 175.679 151.661 176.027 151.315C176.382 151.036 176.605 150.636 176.605 150.191C176.605 149.435 175.968 148.814 175.133 148.689C174.964 148.645 174.788 148.615 174.602 148.615H151.024H122.284C121.24 148.615 120.387 149.35 120.387 150.25C120.39 151.143 121.244 151.881 122.288 151.881Z" fill="#83AEDC"/>
<path d="M122.288 98.1955H174.605C175.272 98.1955 175.858 97.8943 176.195 97.4461C176.448 97.1816 176.605 96.8473 176.605 96.4763C176.605 95.6314 175.81 94.9444 174.825 94.9444H174.803C174.737 94.9371 174.671 94.9261 174.602 94.9261H122.288C121.244 94.9261 120.39 95.6608 120.39 96.5608C120.39 97.4608 121.244 98.1955 122.288 98.1955Z" fill="#83AEDC"/>
<path d="M122.288 104.003H174.605C175.649 104.003 176.503 103.269 176.503 102.369C176.503 101.469 175.649 100.734 174.605 100.734H122.288C121.244 100.734 120.39 101.469 120.39 102.369C120.39 103.269 121.244 104.003 122.288 104.003Z" fill="#83AEDC"/>
<path d="M121.72 111.442H158.409C158.809 111.442 159.164 111.222 159.406 110.877C159.655 110.598 159.812 110.197 159.812 109.753C159.812 108.996 159.365 108.375 158.779 108.25C158.662 108.206 158.537 108.177 158.409 108.177H121.72C120.988 108.177 120.39 108.911 120.39 109.811C120.39 110.708 120.988 111.442 121.72 111.442Z" fill="#83AEDC"/>
<path d="M122.288 159.864H151.028H174.605C175.393 159.864 176.071 159.445 176.356 158.857C176.514 158.63 176.609 158.369 176.609 158.086C176.609 157.241 175.814 156.554 174.829 156.554H158.402H154.189H151.775H132.458C132.458 156.569 132.461 156.583 132.461 156.598H126.651C126.651 156.583 126.651 156.569 126.651 156.554H123.321C123.182 156.554 123.046 156.572 122.915 156.598H122.288C121.244 156.598 120.39 157.333 120.39 158.233C120.39 159.129 121.244 159.864 122.288 159.864Z" fill="#83AEDC"/>
<path d="M122.288 182.372H122.86C123.006 182.405 123.16 182.431 123.321 182.431H143.547C143.51 182.412 143.477 182.39 143.444 182.372H151.035H151.449H166.374H174.613C175.657 182.372 176.51 181.637 176.51 180.737C176.51 179.837 175.657 179.102 174.613 179.102H151.035H122.295C121.251 179.102 120.398 179.837 120.398 180.737C120.39 181.637 121.244 182.372 122.288 182.372Z" fill="#83AEDC"/>
<path d="M122.288 188.543H151.028H174.605C175.649 188.543 176.503 187.809 176.503 186.909C176.503 186.009 175.649 185.274 174.605 185.274H151.028H122.288C121.244 185.274 120.39 186.009 120.39 186.909C120.39 187.805 121.244 188.543 122.288 188.543Z" fill="#83AEDC"/>
<path d="M151.672 56.5666C152.13 56.5666 152.5 56.1955 152.5 55.7364C152.5 55.2772 152.13 54.9061 151.672 54.9061C151.214 54.9061 150.844 55.2772 150.844 55.7364C150.844 56.1955 151.214 56.5666 151.672 56.5666Z" fill="white"/>
<path d="M229.014 203.635C229.018 203.632 229.025 203.628 229.029 203.624C229.04 203.613 229.044 203.602 229.055 203.59C229.044 203.605 229.029 203.62 229.014 203.635Z" fill="#203B71"/>
<path d="M188.021 103.625C187.493 103.625 186.995 103.372 186.687 102.938L183.679 98.7135C183.152 97.9751 183.324 96.9502 184.06 96.4212C184.797 95.8922 185.819 96.0649 186.346 96.8033L187.812 98.8605L192.288 90.3525C192.71 89.5516 193.703 89.243 194.501 89.6655C195.3 90.088 195.608 91.0835 195.186 91.8844L189.468 102.747C189.204 103.25 188.695 103.581 188.13 103.618C188.094 103.625 188.057 103.625 188.021 103.625Z" fill="#F2759C"/>
<path d="M188.021 147.682C187.493 147.682 186.995 147.429 186.687 146.995L183.679 142.771C183.152 142.032 183.324 141.007 184.06 140.478C184.797 139.949 185.819 140.122 186.346 140.86L187.812 142.918L192.288 134.41C192.71 133.609 193.703 133.3 194.501 133.723C195.3 134.145 195.608 135.141 195.186 135.942L189.468 146.804C189.204 147.308 188.695 147.638 188.13 147.675C188.094 147.682 188.057 147.682 188.021 147.682Z" fill="#83AEDC"/>
<path d="M188.021 190.836C187.493 190.836 186.995 190.582 186.687 190.149L183.679 185.924C183.152 185.186 183.324 184.161 184.06 183.632C184.797 183.107 185.819 183.276 186.346 184.014L187.812 186.071L192.288 177.563C192.71 176.762 193.703 176.454 194.501 176.876C195.3 177.299 195.608 178.294 195.186 179.095L189.471 189.958C189.208 190.461 188.698 190.792 188.134 190.828C188.094 190.832 188.057 190.836 188.021 190.836Z" fill="#83AEDC"/>
<path d="M180.141 71.294H175.891V84.4087H180.141V71.294Z" fill="#BDDBF3"/>
<path d="M178.943 66.2355H120.343V66.9739H178.807C178.822 66.7204 178.866 66.4706 178.943 66.2355Z" fill="#61A4D9"/>
<path d="M178.8 70.2911H120.343V77.359H178.8V70.2911Z" fill="#61A4D9"/>
<path d="M166.894 54.1935H135.231V64.2113H166.894V54.1935ZM151.137 62.808C149.566 62.808 148.287 61.5296 148.287 59.95C148.287 58.374 149.562 57.0956 151.137 57.0956C152.709 57.0956 153.984 58.374 153.984 59.95C153.984 61.5296 152.709 62.808 151.137 62.808Z" fill="#61A4D9"/>
<path d="M181.709 64.2187C181.734 64.2187 181.756 64.2223 181.782 64.2223V64.2113H166.894H135.231H120.343V66.2391H178.943C179.324 65.0673 180.423 64.2187 181.709 64.2187Z" fill="#4E99CD"/>
<path d="M178.8 67.1355C178.8 67.0804 178.803 67.029 178.807 66.9775H120.343V70.2911H178.8V67.1355Z" fill="#4E99CD"/>
<path d="M180.188 84.4307L180.17 84.405C180.141 84.4087 180.111 84.4123 180.082 84.4123C179.379 84.4123 178.8 83.8356 178.8 83.1266V82.5315V81.771V78.6595V77.359H120.343V81.4147C121.193 81.5139 122.043 81.5543 122.893 81.569V83.1743C122.893 83.8172 122.409 84.3462 121.794 84.4344H178.316H180.188V84.4307Z" fill="#81B9E0"/>
<path d="M120.332 81.411V83.1743C120.332 83.211 120.339 83.2478 120.343 83.2845V81.4147C120.339 81.411 120.336 81.411 120.332 81.411Z" fill="#2782B5"/>
<path d="M121.614 84.4564C121.643 84.4564 121.673 84.449 121.702 84.449C121.735 84.4454 121.764 84.438 121.794 84.4344H121.372C121.449 84.4454 121.53 84.4564 121.614 84.4564Z" fill="#2782B5"/>
<path d="M122.893 83.1707V81.5653C122.039 81.5506 121.189 81.5102 120.343 81.411V83.2809C120.394 83.8539 120.819 84.3242 121.372 84.4307H121.794C122.413 84.3425 122.893 83.8135 122.893 83.1707Z" fill="#81B9E0"/>
<path d="M107.92 96.5645C107.92 95.4955 108.785 94.6285 109.851 94.6285C110.917 94.6285 111.781 95.4955 111.781 96.5645C111.781 97.6335 110.917 98.5005 109.851 98.5005C108.785 98.5005 107.92 97.6335 107.92 96.5645Z" fill="#83AEDC"/>
<path d="M107.92 137.209C107.92 136.14 108.785 135.273 109.851 135.273C110.917 135.273 111.781 136.14 111.781 137.209C111.781 138.278 110.917 139.145 109.851 139.145C108.785 139.145 107.92 138.278 107.92 137.209Z" fill="#83AEDC"/>
<path d="M107.92 180.193C107.92 179.124 108.785 178.258 109.851 178.258C110.917 178.258 111.781 179.124 111.781 180.193C111.781 181.262 110.917 182.129 109.851 182.129C108.785 182.129 107.92 181.262 107.92 180.193Z" fill="#83AEDC"/>
<path d="M93.1714 145.272C92.7648 145.045 90.0502 148.862 90.0502 148.862L89.7095 148.02C89.2332 146.187 88.1489 147.333 88.1489 147.333C88.1489 147.333 89.3028 150.158 89.4384 151.073C89.497 151.473 89.519 152.109 89.5226 152.693C89.6216 152.535 89.7095 152.447 89.7791 152.447L92.0541 153.876C93.0285 152.667 94.384 150.812 94.8053 149.394C95.4793 147.102 93.578 145.5 93.1714 145.272Z" fill="#FAC5C9"/>
<path d="M89.5226 152.693C88.4676 154.365 85.9325 164.14 85.9325 164.14C83.6905 159.559 75.7592 151.227 75.7592 151.227L75.8288 151.58C75.8325 151.587 79.8 156.565 80.4337 165.139C80.5107 166.193 78.3309 167.78 78.3786 168.857C80.5363 171.248 86.0131 174.312 86.1816 174.43C92.2958 178.621 92.087 153.894 92.087 153.894L92.0541 153.872L89.7791 152.443C89.7058 152.447 89.6216 152.539 89.5226 152.693Z" fill="#EF4F8D"/>
<path d="M69.4582 247.361L69.7476 248.283C69.7476 248.283 71.6599 252.225 71.2349 252.758C70.8099 253.29 66.4542 253.184 65.923 252.438C65.3918 251.692 66.5604 249.242 66.5604 249.242L66.7875 247.365C67.5129 247.42 68.6742 247.391 69.4582 247.361Z" fill="#4161AD"/>
<path d="M77.5616 193.907C79.0783 193.701 80.4081 193.477 81.1774 193.242C81.8661 193.033 82.3717 192.838 82.7417 192.647L98.1353 246.325C97.7909 246.498 96.8861 246.81 95.9336 247.122L96.6186 248.496C96.6186 248.496 104.477 247.537 104.795 249.029C105.114 250.52 104.902 252.225 101.289 252.012C97.6774 251.799 94.0689 250.733 94.0689 250.733V247.714C93.4425 247.908 92.9992 248.041 92.9992 248.041L74.7225 207.407L74.7371 207.275L77.5616 193.907Z" fill="#4161AD"/>
<path d="M64.6664 152.146C65.2892 152.642 68.3555 153.909 69.4435 154.416C70.5315 154.919 71.7075 155.845 72.3779 154.835C72.0409 155.761 73.3853 155.423 73.7187 155.088C74.0154 154.791 74.7115 152.429 74.8031 151.084C75.7409 153.964 78.4591 161.77 78.8365 163.005C79.2944 164.5 79.9831 167.487 79.9831 167.487C79.9831 167.487 80.071 167.288 80.1736 167.005C80.1993 167.24 80.2249 167.483 80.2542 167.733C79.778 167.52 81.6317 177.82 81.6536 178.155C81.9321 182.35 75.0082 183.816 72.5318 185.16C73.9239 184.238 62.2706 184.874 62.2706 184.874C61.8749 184.477 61.4243 159.812 58.739 155C58.838 153.52 61.2412 149.416 64.6664 152.146Z" fill="#F2759C"/>
<path d="M72.616 150.199C72.616 150.199 73.2901 151.543 73.2351 152.722C73.1069 151.984 72.8065 151.066 72.616 150.199Z" fill="#F2759C"/>
<path d="M71.7661 153.755L72.5611 154.185C72.6343 154.181 72.7003 154.174 72.7626 154.159C72.6527 154.298 72.5684 154.313 72.3816 154.831C72.4585 154.71 72.2167 154.295 71.7661 153.755Z" fill="#F2759C"/>
<path d="M70.7916 172.574C70.3667 172.729 70.0663 172.776 69.9601 172.67C69.9601 172.67 70.2751 172.696 70.7916 172.574Z" fill="#F2759C"/>
<path d="M58.3507 177.104C57.9624 173.515 57.6034 169.231 57.314 165.352C58.054 166.664 58.8746 168.107 59.7208 169.569C59.2373 172.365 58.7354 175.197 58.3507 177.104Z" fill="#F2759C"/>
<path d="M58.9808 182.001C60.3436 180.26 61.5086 175.737 61.9921 173.397C64.2232 177.06 66.3076 180.116 67.2674 180.465C68.6302 180.961 73.5392 177.255 77.4004 174.073C78.0708 174.103 79.4593 174.132 80.9539 174C81.3203 177.273 81.639 180.047 81.6829 180.216C81.7599 180.531 82.1812 185.932 82.3936 188.731C81.5327 189.264 74.5393 190.895 73.3853 191.06C72.257 191.222 62.7212 191.071 61.8309 192.335C61.4609 191.185 60.7319 188.87 60.1091 186.707C59.6805 185.219 59.3069 183.808 59.1383 182.905C59.0834 182.629 59.0321 182.32 58.9808 182.001Z" fill="#F2759C"/>
<path d="M62.8604 137.066C62.8714 137 62.886 136.937 62.897 136.871C62.897 136.875 62.897 136.875 62.897 136.878C62.8823 136.941 62.8714 137.003 62.8604 137.066Z" fill="#FAC5C9"/>
<path d="M62.7725 138.234C62.7688 138.043 62.7725 137.852 62.7871 137.661C62.7944 137.69 62.8018 137.723 62.8091 137.753C62.7944 137.903 62.7834 138.065 62.7725 138.234Z" fill="#FAC5C9"/>
<path d="M75.5761 138.021C75.5761 138.006 75.5761 137.991 75.5761 137.977C75.5541 137.047 75.3196 136.173 74.946 135.387L74.6382 135.842L74.3928 135.901C73.8469 136.338 72.9128 136.555 71.506 136.592C70.6634 136.614 69.6816 136.496 68.7475 136.276C67.4946 137.018 66.9634 138.028 66.7363 138.958C66.7289 139.02 66.641 140.027 66.6483 140.368C66.6593 140.846 66.5714 141.294 66.4102 141.683C66.3077 141.632 66.2051 141.58 66.0988 141.544C65.6885 141.393 65.5347 140.739 65.4761 140.313C65.5493 140.052 65.586 139.747 65.5786 139.428C65.553 138.436 65.0951 137.642 64.5565 137.657C64.018 137.672 63.6041 138.487 63.626 139.479C63.648 140.354 64.0034 141.07 64.4576 141.22L65.1097 141.977L65.2856 142.179L65.3149 143.998C65.1537 144.134 64.9778 144.2 64.7983 144.093C64.2525 143.774 63.3659 142.01 63.3659 142.01C63.1205 141.58 62.941 141.044 62.8274 140.464C62.7065 139.836 62.7175 138.969 62.7615 138.234C62.7725 138.065 62.7835 137.903 62.7981 137.753C62.7908 137.723 62.7835 137.69 62.7761 137.661V137.657C62.7798 137.624 62.7835 137.595 62.7871 137.562C62.8018 137.396 62.8238 137.231 62.8494 137.066C62.8604 137.003 62.875 136.941 62.886 136.878C62.886 136.875 62.886 136.875 62.886 136.871C62.8897 136.834 62.8934 136.809 62.8934 136.809H62.897C62.919 136.702 62.9446 136.595 62.9703 136.489C62.9886 136.415 63.0106 136.342 63.0326 136.268C63.0692 136.151 63.1058 136.037 63.1498 135.923C63.1754 135.853 63.2011 135.784 63.2267 135.717C63.278 135.593 63.333 135.471 63.3916 135.346C63.4172 135.295 63.4392 135.244 63.4649 135.192C63.5491 135.027 63.6407 134.865 63.7396 134.711C63.7726 134.659 63.8092 134.608 63.8458 134.557C63.9154 134.45 63.9887 134.347 64.0657 134.248C64.1133 134.186 64.1609 134.127 64.2122 134.064C64.2818 133.98 64.3551 133.892 64.432 133.811C64.4869 133.752 64.5419 133.693 64.6005 133.635C64.6774 133.554 64.758 133.477 64.8423 133.403C64.9009 133.352 64.9559 133.297 65.0145 133.245C65.117 133.157 65.2269 133.072 65.3332 132.992C65.4028 132.94 65.4724 132.889 65.5457 132.837C65.6666 132.757 65.7874 132.676 65.912 132.602C65.9816 132.562 66.0549 132.521 66.1281 132.485C66.1941 132.448 66.26 132.411 66.3296 132.375C66.4798 132.268 66.6447 132.172 66.8169 132.084L66.8315 132.055C66.8315 132.055 66.8828 132.037 66.9597 132.007C67.3554 131.816 67.8096 131.662 68.3005 131.555C69.5461 131.162 71.2606 130.692 72.1105 130.791C73.5355 130.96 77.0561 132.22 77.0561 132.22L75.2097 134.964C75.5284 135.956 75.9278 137.481 75.7189 138.366C75.6383 138.708 75.5797 138.961 75.5358 139.156C75.5651 138.756 75.5724 138.392 75.5651 138.087C75.5797 138.069 75.5761 138.047 75.5761 138.021Z" fill="#4161AD"/>
<path d="M73.2315 152.722C73.2205 152.932 73.1912 153.134 73.1289 153.321C72.9457 153.872 72.8432 154.052 72.7552 154.159C72.693 154.174 72.6307 154.185 72.5537 154.185L71.7588 153.755C70.9309 152.767 69.3886 151.363 67.762 150.548C66.238 149.784 65.7325 149.082 65.5676 148.648L65.3442 144.413L65.3258 144.435L65.3185 143.994L65.2892 142.176L65.1134 141.974L64.4613 141.217C64.0107 141.066 63.6517 140.346 63.6297 139.476C63.604 138.484 64.0217 137.668 64.5602 137.653C65.0987 137.639 65.5566 138.432 65.5823 139.424C65.5896 139.744 65.553 140.045 65.4797 140.309C65.5383 140.736 65.6922 141.393 66.1025 141.54C66.2087 141.581 66.3113 141.628 66.4139 141.68C66.5751 141.294 66.663 140.846 66.652 140.365C66.6447 140.023 66.7326 139.016 66.7399 138.954C66.967 138.024 67.4946 137.014 68.7511 136.272C69.6853 136.493 70.6671 136.61 71.5097 136.588C72.9164 136.551 73.8506 136.335 74.3964 135.897L74.6419 135.839L74.9496 135.383C75.3269 136.173 75.5577 137.044 75.5797 137.973C75.5797 137.988 75.5797 138.002 75.5797 138.017C75.5797 138.043 75.5834 138.065 75.5834 138.094C75.5907 138.403 75.5797 138.763 75.5541 139.163C75.3746 141.735 75.2683 145.732 73.7114 146.944C73.4733 147.131 72.4109 147.223 72.4035 147.491C72.3559 148.711 72.4475 148.781 72.4475 148.781C72.4292 149.203 72.5061 149.688 72.616 150.191C72.8065 151.066 73.1069 151.984 73.2315 152.722Z" fill="#FAC5C9"/>
<path d="M68.502 194.84C69.711 194.733 74.129 194.37 77.5616 193.907L74.7408 207.275L74.7262 207.407L70.3154 246.384L70.2788 247.328C70.2788 247.328 69.9381 247.346 69.4582 247.365C68.6742 247.394 67.5093 247.42 66.7876 247.372C66.4176 247.346 66.1611 247.302 66.1355 247.225C66.0292 246.906 63.5857 229.228 63.7982 224.434C63.9777 220.379 62.9117 201.037 62.582 195.196C63.8422 195.523 66.7289 194.998 68.502 194.84Z" fill="#4770B7"/>
<path d="M61.9885 173.397C61.5049 175.737 60.34 180.26 58.9772 182.001C58.7281 182.32 58.4716 182.544 58.2115 182.647C56.149 183.452 56.149 182.188 55.4603 181.27C54.7716 180.351 57.292 179.661 57.7536 179.433C57.8562 179.382 58.0723 178.482 58.3507 177.108C58.7354 175.197 59.2336 172.369 59.7208 169.573C60.4682 170.863 61.2375 172.163 61.9885 173.397Z" fill="#4770B7"/>
<path d="M80.2762 166.719C80.2432 166.818 80.2066 166.913 80.1736 167.002C80.0674 167.285 79.9831 167.483 79.9831 167.483C79.9831 167.483 79.2944 164.496 78.8365 163.001C78.4592 161.767 75.7373 153.96 74.8031 151.08C74.8141 150.915 74.8177 150.761 74.8104 150.632C74.7921 150.393 74.6895 150.151 74.543 149.916C74.7848 149.743 75.7959 150.008 76.8949 150.709C76.8949 150.709 77.0194 151.007 77.2246 151.54C78.0342 153.659 80.104 159.537 80.562 165.415C80.5803 165.738 80.4301 166.274 80.2762 166.719Z" fill="#4770B7"/>
<path d="M50.6503 178.97C50.6503 180.348 52.5992 185.289 52.5992 185.289C52.5992 185.289 52.8556 185.741 52.2658 186.064C52.068 186.174 51.7713 186.266 51.339 186.325C49.6208 186.556 48.8186 181.27 47.9027 177.593C47.0601 174.22 48.727 173.364 49.5366 173.067C49.6098 173.041 49.6795 173.015 49.7344 172.997C49.7344 172.997 50.6503 177.593 50.6503 178.97Z" fill="#4770B7"/>
<path d="M67.7657 150.548C69.3922 151.363 70.9345 152.767 71.7625 153.755C72.2131 154.295 72.4549 154.71 72.3743 154.835C71.7039 155.845 70.5316 154.919 69.4399 154.416C68.3518 153.913 65.3881 152.469 64.6628 152.146C62.212 151.062 61.7467 152.138 61.6661 152.462C61.6515 152.513 61.6478 152.55 61.6478 152.55C61.6478 152.55 58.7207 152.318 60.2667 148.586C60.3107 148.483 60.34 148.391 60.3913 148.281C62.2339 144.247 65.4211 146.264 65.4211 146.264L65.5054 148.197C65.5054 148.197 65.4687 148.369 65.575 148.652C65.7362 149.082 66.2417 149.784 67.7657 150.548Z" fill="#EF4F8D"/>
<path d="M74.8031 151.084C74.7115 152.429 74.0191 154.791 73.7187 155.088C73.3817 155.426 72.0409 155.761 72.3779 154.835C72.5684 154.313 72.649 154.298 72.7589 154.163C72.8432 154.056 72.9494 153.872 73.1326 153.325C73.1948 153.138 73.2241 152.932 73.2351 152.726C73.2901 151.547 72.616 150.202 72.616 150.202L72.4438 148.792L72.6307 148.2C72.6307 148.2 73.9568 149.001 74.5393 149.92C74.6895 150.155 74.7921 150.397 74.8067 150.636C74.8177 150.761 74.8141 150.915 74.8031 151.084Z" fill="#EF4F8D"/>
<path d="M73.3817 191.06C74.5357 190.895 81.5291 189.264 82.39 188.731C82.4047 188.723 82.4193 188.712 82.4303 188.705C83.1007 188.202 83.7711 190.219 83.7711 191.06C83.7711 191.67 83.7235 192.147 82.738 192.651C82.3644 192.842 81.8625 193.036 81.1738 193.246C80.4044 193.477 79.0746 193.705 77.558 193.911C74.1254 194.377 69.7073 194.741 68.4984 194.844C66.7253 194.998 63.8385 195.527 62.582 195.196C62.4721 195.167 62.3731 195.134 62.2889 195.093C61.6881 194.785 61.6405 193.477 61.7577 192.496C61.765 192.441 61.7907 192.39 61.8273 192.338C62.7175 191.071 72.2534 191.222 73.3817 191.06Z" fill="#EF4F8D"/>
<path d="M44.5727 193.374L51.0386 189.153L49.1556 186.251L43.8693 189.701L42.686 190.472L41.5027 191.244C42.8875 192.823 44.0781 193.698 44.5727 193.374Z" fill="#3E64AF"/>
<path d="M37.1726 184.561L38.3559 183.79L39.5391 183.018L44.8254 179.569L42.9424 176.667L36.4765 180.888C35.9746 181.211 36.2897 182.655 37.1726 184.561Z" fill="#203B71"/>
<path d="M116.987 138.939C116.698 138.469 118.137 137.345 118.083 136.709L110.071 145.114L108.477 146.786L107.616 147.69C107.986 147.785 108.503 147.719 109.038 147.653C109.873 147.554 110.752 147.458 111.206 148.006C111.408 148.248 111.507 148.601 111.525 148.972L112.049 148.167L117.98 139.082C117.518 139.167 117.112 139.138 116.987 138.939Z" fill="#E6F2FB"/>
<path d="M105.11 137.999C105.396 138.634 104.781 139.446 104.213 140.214C103.817 140.75 103.447 141.268 103.422 141.687L104.836 141.176L107.004 140.394L117.929 136.449C117.368 136.063 115.482 136.742 115.218 136.217C115.144 136.074 115.21 135.868 115.346 135.644L105.023 137.341L104.513 137.426C104.795 137.576 105.008 137.771 105.11 137.999Z" fill="#FDD4B4"/>
<path d="M105.609 142.363C106.576 142.267 107.631 142.11 108.268 142.334C108.473 142.403 108.635 142.514 108.737 142.679C108.832 142.833 108.858 143.013 108.84 143.212C108.774 143.876 108.166 144.747 107.686 145.559C107.243 146.305 106.909 146.999 107.206 147.425C107.301 147.561 107.444 147.646 107.62 147.69L108.481 146.786L110.074 145.114L118.086 136.709C118.083 136.662 118.072 136.614 118.046 136.57C118.02 136.522 117.98 136.482 117.932 136.449L107.008 140.394L104.839 141.176L103.425 141.687C103.418 141.805 103.436 141.915 103.491 142.018C103.755 142.495 104.638 142.458 105.609 142.363Z" fill="#F3E7D8"/>
<path d="M39.1252 188.044C39.9238 189.275 40.7444 190.366 41.5101 191.244L42.6933 190.472L43.8766 189.701L49.1629 186.251L44.8291 179.569L39.5428 183.018L38.3595 183.79L37.1763 184.561C37.6635 185.616 38.3266 186.813 39.1252 188.044Z" fill="#1D439C"/>
<path d="M115.221 136.213C115.485 136.742 117.372 136.059 117.932 136.445C117.98 136.478 118.02 136.518 118.046 136.566C118.068 136.61 118.083 136.654 118.086 136.706C118.141 137.341 116.701 138.465 116.991 138.936C117.115 139.138 117.518 139.163 117.984 139.079L120.815 134.744L115.353 135.64C115.214 135.868 115.148 136.07 115.221 136.213Z" fill="#F2759C"/>
<path d="M111.21 148.002C110.759 147.455 109.877 147.546 109.041 147.649C108.506 147.715 107.99 147.782 107.62 147.686L107.008 148.329L106.557 148.803L55.3431 182.218L57.2261 185.12L110.093 150.629L110.712 150.224L111.529 148.972C111.51 148.601 111.411 148.248 111.21 148.002Z" fill="#09BEEC"/>
<path d="M55.3465 182.217L49.1652 186.25L51.0494 189.154L57.2306 185.121L55.3465 182.217Z" fill="#EBEBEB"/>
<path d="M49.1255 172.634L42.9443 176.668L44.8284 179.571L51.0097 175.538L49.1255 172.634Z" fill="#C4C4C4"/>
<path d="M51.0056 175.535L102.22 142.121L102.301 142.091L103.429 141.683C103.455 141.265 103.825 140.75 104.22 140.21C104.788 139.442 105.403 138.627 105.118 137.995C105.015 137.767 104.803 137.576 104.524 137.418L102.612 137.731L101.015 138.774L49.1263 172.63L51.0056 175.535Z" fill="#3454A5"/>
<path d="M106.554 148.803L107.004 148.329L107.616 147.686C107.44 147.642 107.297 147.557 107.202 147.421C106.906 146.995 107.239 146.301 107.682 145.555C108.162 144.743 108.77 143.873 108.836 143.208C108.854 143.01 108.829 142.83 108.734 142.675C108.631 142.51 108.47 142.403 108.265 142.33C107.627 142.109 106.572 142.264 105.605 142.359C104.631 142.455 103.751 142.492 103.488 142.01C103.433 141.911 103.414 141.797 103.422 141.68L102.293 142.087L102.213 142.117L50.9983 175.532L55.3321 182.214L106.554 148.803Z" fill="#387ABE"/>
<path d="M51.01 175.537L44.8288 179.57L49.1645 186.252L55.3457 182.219L51.01 175.537Z" fill="#D9D9D8"/>
<path d="M70.5389 173.643L70.4839 173.662L71.4218 176.755C71.8357 176.704 72.3083 176.645 72.8432 176.568C73.1729 176.52 73.5172 176.472 73.8982 176.413C78.5398 175.708 77.1843 173.772 77.1843 172.659C77.1843 171.546 72.594 172.13 72.594 172.13C72.594 172.13 73.6381 169.9 73.2718 169.724C73.1033 169.643 72.5574 170.466 72.0262 171.366C71.4144 172.398 70.821 173.537 70.821 173.537L70.5389 173.643Z" fill="#FAC5C9"/>
<path d="M71.1543 177.754C71.4401 177.504 71.6049 177.354 71.6049 177.354L71.4218 176.755L70.4839 173.662L70.1432 172.545L61.831 176.046C61.036 167.376 60.6587 155.364 59.4937 154.052C59.3765 153.92 59.2483 153.894 59.1127 154.001C48.7819 161.862 55.2552 178.739 58.0723 182.96C58.5302 183.647 59.197 183.955 59.9919 184.003C63.4868 184.209 69.4765 179.22 71.1543 177.754Z" fill="#EF4F8D"/>
<path d="M232.007 235.738L231.644 240.602L229.219 240.359L228.977 235.374L232.007 235.738Z" fill="#FAC6C9"/>
<path d="M246.741 232.773L248.525 237.31L246.236 238.151L243.855 233.769L246.741 232.773Z" fill="#FAC6C9"/>
<path d="M232.736 239.265L228.736 239.871C228.736 239.871 224.735 242.545 223.16 242.666C221.585 242.788 220.006 244.246 221.585 244.488C223.16 244.731 233.223 244.004 233.223 244.004L232.736 239.265Z" fill="#024F4B"/>
<path d="M238.125 194.491C238.125 194.491 231.959 212.514 232.568 218.593C233.172 224.673 233.223 236.102 233.223 236.102L227.523 235.98C227.523 235.98 225.34 216.771 225.34 213.123C225.34 209.476 230.483 179.569 230.483 179.569L238.125 194.491Z" fill="#024F4B"/>
<path d="M248.873 236.59L244.752 238.17C244.752 238.17 244.51 241.087 242.935 241.454C241.36 241.818 238.935 243.034 239.176 244.007C239.418 244.981 246.452 243.522 246.452 243.522L251.06 239.874L248.873 236.59Z" fill="#024F4B"/>
<path d="M243.455 179.999C243.455 179.999 245.569 181.92 245.705 184.697C246.042 191.725 244.697 204.333 245.393 205.901C246.364 208.091 249.115 234.037 249.115 234.037L243.66 235.374C243.66 235.374 235.092 208.326 234.242 202.25C233.392 196.17 230.15 180.021 230.15 180.021L243.455 179.999Z" fill="#00848A"/>
<path d="M226.724 136.471C226.724 136.471 225.149 145.956 231.212 145.956L230.97 152.52L236.546 150.089L236.183 135.622L228.787 135.38L226.724 136.471Z" fill="#FAC6C9"/>
<path d="M231.476 136.831C231.476 136.831 224.468 137.165 224.347 135.828C224.226 134.491 224.178 129.054 230.362 131.122C236.546 133.19 238.85 133.19 238.242 136.107C237.638 139.024 236.546 142.55 236.546 142.55L235.333 142.065L234.604 139.027C234.604 139.027 236.418 138.179 235.333 136.596C233.341 133.693 233.209 140.64 233.209 140.64L231.476 136.831Z" fill="#024F4B"/>
<path d="M236.667 146.926L230.604 149.479C230.604 149.479 228.047 153.755 227.944 157.671C227.853 161.208 229.124 164.144 229.476 167.024C230.318 173.919 232.051 172.721 230.498 177.196C229.047 181.38 227.776 182.835 227.776 182.835L245.324 181.097L242.488 173.519L242.016 160.727L236.667 146.926Z" fill="#F27B21"/>
<path d="M234.755 159.335C237.066 158.215 239.664 157.55 241.829 156.172C241.708 154.82 241.558 153.847 241.396 153.49C240.792 152.153 238.367 148.99 237.154 148.263C237.154 148.263 231.263 147.756 233.809 156.268C234.132 157.362 234.454 158.38 234.755 159.335Z" fill="#F79A20"/>
<path d="M231.545 135.185C231.545 135.185 240.697 134.311 234.597 140.721C228.498 147.131 237.356 153.395 238.81 154.996C240.264 156.598 237.792 163.008 240.118 163.883C242.44 164.757 254.031 177.163 252.174 161.697C250.313 146.198 243.979 150.687 242.169 144.148C240.063 136.551 239.11 126.298 231.403 131.107L228.351 132.856L231.545 135.185Z" fill="#024F4B"/>
<path d="M235.392 131.294C235.392 131.294 232.34 127.507 234.374 126.78C236.407 126.052 240.766 127.654 238.44 129.84C236.117 132.022 235.392 131.294 235.392 131.294Z" fill="#024F4B"/>
<path d="M234.157 129.476C234.157 129.476 236.55 130.479 237.718 130.369C237.718 130.369 238.663 131.82 236.883 131.596C235.103 131.372 232.934 130.872 233.212 130.259C233.487 129.645 233.546 129.252 234.157 129.476Z" fill="#F79A20"/>
<path d="M239.887 172.519L236.476 167.266L234.132 168.798L236.92 173.092L237.542 174.051L238.165 175.01C239.44 173.886 240.147 172.923 239.887 172.519Z" fill="#3E64AF"/>
<path d="M232.765 178.529L232.143 177.571L231.52 176.612L228.732 172.317L226.387 173.849L229.798 179.102C230.058 179.503 231.227 179.249 232.765 178.529Z" fill="#203B71"/>
<path d="M195.904 113.687C195.523 113.922 194.618 112.754 194.102 112.798L200.894 119.308L202.246 120.601L202.975 121.299C203.052 120.998 202.997 120.579 202.945 120.142C202.865 119.462 202.788 118.746 203.231 118.382C203.429 118.217 203.715 118.136 204.011 118.125L203.359 117.699L196.021 112.883C196.087 113.257 196.065 113.588 195.904 113.687Z" fill="#E6F2FB"/>
<path d="M195.146 123.334C195.659 123.102 196.315 123.602 196.937 124.061C197.373 124.381 197.787 124.682 198.128 124.704L197.714 123.554L197.08 121.791L193.893 112.916C193.582 113.371 194.131 114.903 193.706 115.116C193.589 115.175 193.424 115.123 193.245 115.01L194.615 123.396L194.681 123.808C194.805 123.591 194.963 123.418 195.146 123.334Z" fill="#FDD4B4"/>
<path d="M198.67 122.93C198.593 122.144 198.465 121.288 198.644 120.77C198.703 120.604 198.791 120.472 198.923 120.388C199.047 120.311 199.194 120.288 199.355 120.307C199.894 120.362 200.597 120.854 201.253 121.244C201.857 121.604 202.414 121.875 202.758 121.633C202.868 121.556 202.934 121.438 202.975 121.295L202.246 120.597L200.894 119.304L194.102 112.794C194.062 112.798 194.025 112.809 193.992 112.827C193.952 112.849 193.922 112.883 193.893 112.919L197.08 121.795L197.714 123.558L198.128 124.708C198.223 124.715 198.311 124.697 198.395 124.653C198.776 124.436 198.751 123.72 198.67 122.93Z" fill="#F3E7D8"/>
<path d="M235.579 176.946C236.572 176.3 237.455 175.631 238.162 175.01L237.539 174.051L236.916 173.092L234.128 168.798L228.728 172.321L231.516 176.615L232.139 177.574L232.762 178.533C233.619 178.133 234.586 177.593 235.579 176.946Z" fill="#1D439C"/>
<path d="M193.706 115.123C194.135 114.907 193.582 113.379 193.893 112.923C193.919 112.886 193.952 112.853 193.992 112.831C194.025 112.813 194.065 112.802 194.102 112.798C194.618 112.754 195.523 113.922 195.904 113.687C196.065 113.588 196.087 113.257 196.021 112.879L192.519 110.579L193.245 115.017C193.424 115.131 193.589 115.179 193.706 115.123Z" fill="#F2759C"/>
<path d="M203.227 118.382C202.784 118.749 202.861 119.466 202.942 120.142C202.993 120.579 203.048 120.997 202.971 121.299L203.491 121.798L203.872 122.166L230.868 163.773L233.212 162.241L205.345 119.289L205.019 118.786L204.008 118.121C203.711 118.136 203.425 118.217 203.227 118.382Z" fill="#09BEEC"/>
<path d="M233.223 162.233L230.877 163.763L234.136 168.786L236.482 167.255L233.223 162.233Z" fill="#EBEBEB"/>
<path d="M225.48 167.291L223.134 168.822L226.393 173.844L228.739 172.313L225.48 167.291Z" fill="#C4C4C4"/>
<path d="M225.475 167.292L198.48 125.685L198.458 125.623L198.128 124.704C197.791 124.686 197.373 124.385 196.937 124.061C196.315 123.602 195.659 123.102 195.146 123.334C194.963 123.418 194.805 123.591 194.681 123.815L194.933 125.369L195.776 126.666L223.131 168.824L225.475 167.292Z" fill="#3454A5"/>
<path d="M203.876 122.162L203.495 121.795L202.975 121.295C202.938 121.438 202.872 121.552 202.758 121.633C202.414 121.875 201.854 121.604 201.253 121.244C200.597 120.854 199.894 120.362 199.355 120.307C199.194 120.292 199.047 120.311 198.923 120.388C198.791 120.469 198.703 120.601 198.644 120.77C198.465 121.288 198.589 122.144 198.67 122.93C198.747 123.72 198.776 124.436 198.388 124.649C198.307 124.693 198.216 124.708 198.121 124.704L198.45 125.623L198.472 125.685L225.468 167.292L230.868 163.769L203.876 122.162Z" fill="#387ABE"/>
<path d="M230.878 163.764L225.479 167.287L228.738 172.309L234.136 168.787L230.878 163.764Z" fill="#D9D9D8"/>
<path d="M207.484 144.707C207.045 144.707 208.037 148.075 208.477 148.513C208.917 148.95 210.631 149.365 211.159 149.541C211.686 149.718 212.261 150.728 212.261 150.728L213.606 149.398L212.88 148.134C212.88 148.134 213.36 146.793 213.009 146.176C212.657 145.563 212.038 143.579 211.543 144.057C211.221 144.369 211.844 145.831 211.844 145.831C211.844 145.831 211.946 147.256 211.598 147.084C211.247 146.907 207.484 144.707 207.484 144.707Z" fill="#FAC6C9"/>
<path d="M211.507 150.768C211.507 150.768 213.434 148.524 214.001 148.682C214.569 148.84 223.149 159.636 224.376 159.372C224.376 159.372 233.22 149.714 233.919 149.89C234.619 150.066 238.561 157.439 237.945 157.968C237.334 158.494 223.413 166.047 221.222 164.551C219.039 163.06 211.507 150.768 211.507 150.768Z" fill="#F79A20"/>
</svg>
